<svg xmlns="http://www.w3.org/2000/svg" viewBox="0 0 860 440" font-family="'Inter', 'Segoe UI', system-ui, -apple-system, sans-serif">
  <defs>
    <linearGradient id="bg5" x1="0" y1="0" x2="0" y2="1">
      <stop offset="0%" stop-color="#0f172a"/>
      <stop offset="100%" stop-color="#1e293b"/>
    </linearGradient>
    <marker id="a5" viewBox="0 0 10 10" refX="9" refY="5" markerWidth="7" markerHeight="7" orient="auto">
      <path d="M 0 0 L 10 5 L 0 10 z" fill="#94a3b8"/>
    </marker>
    <marker id="a5g" viewBox="0 0 10 10" refX="9" refY="5" markerWidth="7" markerHeight="7" orient="auto">
      <path d="M 0 0 L 10 5 L 0 10 z" fill="#22c55e"/>
    </marker>
    <marker id="a5r" viewBox="0 0 10 10" refX="9" refY="5" markerWidth="7" markerHeight="7" orient="auto">
      <path d="M 0 0 L 10 5 L 0 10 z" fill="#ef4444"/>
    </marker>
  </defs>

  <rect width="860" height="440" rx="16" fill="url(#bg5)"/>

  <text x="430" y="32" text-anchor="middle" fill="#f1f5f9" font-size="20" font-weight="700">The Core Problem: No Isolation</text>

  <!-- LEFT: Correct design -->
  <text x="215" y="62" text-anchor="middle" fill="#22c55e" font-size="14" font-weight="700">Secure Design</text>

  <!-- Agent sandbox -->
  <rect x="40" y="80" width="160" height="140" rx="10" fill="#1e3a5f" stroke="#3b82f6" stroke-width="1.5"/>
  <text x="120" y="105" text-anchor="middle" fill="#93c5fd" font-size="12" font-weight="600">Agent Sandbox</text>
  <text x="120" y="130" text-anchor="middle" fill="#64748b" font-size="10">Can write files</text>
  <text x="120" y="145" text-anchor="middle" fill="#64748b" font-size="10">Can run commands</text>
  <text x="120" y="160" text-anchor="middle" fill="#64748b" font-size="10">Can modify state</text>
  <rect x="60" y="175" width="120" height="22" rx="4" fill="#1e40af" opacity="0.5"/>
  <text x="120" y="190" text-anchor="middle" fill="#93c5fd" font-size="9">Produces: artifacts</text>

  <!-- Isolation wall -->
  <rect x="218" y="80" width="14" height="320" rx="4" fill="#22c55e" opacity="0.3"/>
  <line x1="225" y1="80" x2="225" y2="400" stroke="#22c55e" stroke-width="3"/>
  <text x="225" y="420" text-anchor="middle" fill="#22c55e" font-size="9" font-weight="700">ISOLATION BOUNDARY</text>

  <!-- Controlled channel arrow -->
  <line x1="200" y1="186" x2="246" y2="186" stroke="#22c55e" stroke-width="1.5" marker-end="url(#a5g)"/>
  <text x="223" y="178" text-anchor="middle" fill="#22c55e" font-size="8">controlled</text>

  <!-- Evaluator sandbox -->
  <rect x="248" y="80" width="160" height="140" rx="10" fill="#14532d" stroke="#22c55e" stroke-width="1.5"/>
  <text x="328" y="105" text-anchor="middle" fill="#86efac" font-size="12" font-weight="600">Evaluator</text>
  <text x="328" y="130" text-anchor="middle" fill="#86efac" font-size="10">Read-only access</text>
  <text x="328" y="145" text-anchor="middle" fill="#86efac" font-size="10">Private gold answers</text>
  <text x="328" y="160" text-anchor="middle" fill="#86efac" font-size="10">Integrity-checked</text>
  <rect x="268" y="175" width="120" height="22" rx="4" fill="#166534" opacity="0.5"/>
  <text x="328" y="190" text-anchor="middle" fill="#86efac" font-size="9">Produces: score</text>

  <!-- Agent can't reach evaluator -->
  <text x="120" y="250" text-anchor="middle" fill="#22c55e" font-size="10">Agent CANNOT:</text>
  <text x="120" y="268" text-anchor="middle" fill="#86efac" font-size="9">- Read gold answers</text>
  <text x="120" y="283" text-anchor="middle" fill="#86efac" font-size="9">- Modify test files</text>
  <text x="120" y="298" text-anchor="middle" fill="#86efac" font-size="9">- Tamper with binaries</text>
  <text x="120" y="313" text-anchor="middle" fill="#86efac" font-size="9">- Inject into judge</text>
  <text x="120" y="328" text-anchor="middle" fill="#86efac" font-size="9">- Influence scorer</text>

  <!-- Divider -->
  <line x1="430" y1="65" x2="430" y2="425" stroke="#475569" stroke-width="1" stroke-dasharray="4,4"/>
  <text x="430" y="435" text-anchor="middle" fill="#475569" font-size="10">vs.</text>

  <!-- RIGHT: Broken design (what benchmarks actually do) -->
  <text x="645" y="62" text-anchor="middle" fill="#ef4444" font-size="14" font-weight="700">What Most Benchmarks Do</text>

  <!-- Single shared environment -->
  <rect x="460" y="80" width="370" height="320" rx="10" fill="#1a1a2e" stroke="#ef4444" stroke-width="2" stroke-dasharray="6,3"/>
  <text x="645" y="102" text-anchor="middle" fill="#fca5a5" font-size="12" font-weight="600">SHARED ENVIRONMENT</text>
  <text x="645" y="118" text-anchor="middle" fill="#ef4444" font-size="9">(same container / VM / filesystem)</text>

  <!-- Agent inside -->
  <rect x="480" y="135" width="145" height="90" rx="8" fill="#312e81" stroke="#818cf8" stroke-width="1.5"/>
  <text x="552" y="158" text-anchor="middle" fill="#c7d2fe" font-size="11" font-weight="600">Agent</text>
  <text x="552" y="178" text-anchor="middle" fill="#a5b4fc" font-size="9">Full read/write access</text>
  <text x="552" y="193" text-anchor="middle" fill="#a5b4fc" font-size="9">to everything</text>
  <text x="552" y="208" text-anchor="middle" fill="#ef4444" font-size="9" font-weight="700">including evaluation</text>

  <!-- Evaluator inside -->
  <rect x="665" y="135" width="145" height="90" rx="8" fill="#1e3a5f" stroke="#3b82f6" stroke-width="1.5"/>
  <text x="737" y="158" text-anchor="middle" fill="#93c5fd" font-size="11" font-weight="600">Evaluator</text>
  <text x="737" y="178" text-anchor="middle" fill="#93c5fd" font-size="9">Trusts local files</text>
  <text x="737" y="193" text-anchor="middle" fill="#93c5fd" font-size="9">Trusts test output</text>
  <text x="737" y="208" text-anchor="middle" fill="#93c5fd" font-size="9">Trusts system binaries</text>

  <!-- Exploit arrows -->
  <line x1="625" y1="165" x2="663" y2="165" stroke="#ef4444" stroke-width="2" marker-end="url(#a5r)"/>
  <line x1="625" y1="185" x2="663" y2="185" stroke="#ef4444" stroke-width="2" marker-end="url(#a5r)"/>
  <line x1="625" y1="205" x2="663" y2="205" stroke="#ef4444" stroke-width="2" marker-end="url(#a5r)"/>

  <!-- Exploit list -->
  <rect x="480" y="245" width="330" height="140" rx="8" fill="#0d1117" stroke="#30363d" stroke-width="1"/>
  <text x="495" y="267" fill="#fca5a5" font-size="11" font-weight="600">Agent can freely:</text>
  <text x="495" y="288" fill="#ef4444" font-size="10">Overwrite test frameworks</text><text x="700" y="288" fill="#64748b" font-size="9">(SWE-bench)</text>
  <text x="495" y="306" fill="#ef4444" font-size="10">Trojanize system binaries</text><text x="700" y="306" fill="#64748b" font-size="9">(Terminal-Bench)</text>
  <text x="495" y="324" fill="#ef4444" font-size="10">Download gold answers</text><text x="700" y="324" fill="#64748b" font-size="9">(OSWorld)</text>
  <text x="495" y="342" fill="#ef4444" font-size="10">Read reference answers</text><text x="700" y="342" fill="#64748b" font-size="9">(WebArena)</text>
  <text x="495" y="360" fill="#ef4444" font-size="10">Manipulate VM state</text><text x="700" y="360" fill="#64748b" font-size="9">(OSWorld)</text>
  <text x="495" y="378" fill="#ef4444" font-size="10">Execute code on grader</text><text x="700" y="378" fill="#64748b" font-size="9">(eval() RCE)</text>
</svg>
